<svg width="122" height="122" viewBox="0 0 122 122" fill="none" xmlns="http://www.w3.org/2000/svg">
<path d="M50.2458 24.2014C63.3771 11.0701 84.6672 11.0701 97.7986 24.2014C110.93 37.3328 110.93 58.6229 97.7986 71.7542C94.5317 75.0211 90.7598 77.4753 86.7341 79.1166C74.5788 84.0728 60.1102 81.6186 50.2458 71.7542C40.3814 61.8898 37.9272 47.4212 42.8834 35.2659C44.5247 31.2402 46.9789 27.4683 50.2458 24.2014Z" fill="#2E2E2E"/>
<path d="M33.023 41.4242C35.8969 38.5504 39.2808 36.4976 42.8834 35.2659C51.8907 32.1862 62.2648 34.239 69.45 41.4242L80.5758 52.55C87.761 59.7352 89.8138 70.1093 86.7341 79.1166C85.5024 82.7192 83.4496 86.1031 80.5758 88.977L69.45 100.103C59.3909 110.162 43.0821 110.162 33.023 100.103L21.8972 88.977C11.8382 78.9179 11.8382 62.6091 21.8972 52.55L33.023 41.4242Z" fill="white"/>
<path fill-rule="evenodd" clip-rule="evenodd" d="M61 0C27.3106 0 0 27.3106 0 61V61C0 94.6894 27.3106 122 61 122V122C94.6894 122 122 94.6894 122 61V61C122 27.3106 94.6894 0 61 0V0ZM42.8834 35.2659C44.5247 31.2402 46.9789 27.4683 50.2458 24.2014C63.3771 11.0701 84.6672 11.0701 97.7986 24.2014C110.93 37.3328 110.93 58.6229 97.7986 71.7542C94.5317 75.0211 90.7598 77.4753 86.7341 79.1166C85.5024 82.7192 83.4496 86.1031 80.5758 88.977L69.45 100.103C59.3909 110.162 43.0821 110.162 33.023 100.103L21.8972 88.977C11.8382 78.9179 11.8382 62.6091 21.8972 52.55L33.023 41.4242C35.8969 38.5504 39.2808 36.4976 42.8834 35.2659Z" fill="#FD4D4D"/>
</svg>
